<svg width="48mm" height="48mm" version="1.1" viewBox="0 0 48 48" xmlns="http://www.w3.org/2000/svg" xmlns:xlink="http://www.w3.org/1999/xlink">
 <defs>
  <linearGradient id="linearGradient9" x1="24" x2="24" y1="5.9663e-7" y2="48" gradientUnits="userSpaceOnUse">
   <stop stop-color="#72a904" offset="0"/>
   <stop stop-color="#013c2a" offset="1"/>
  </linearGradient>
 </defs>
 <rect width="48" height="48" ry="8" fill="url(#linearGradient9)" stroke-width=".31"/>
 <path d="m22.696 25.226q3.2964 0 4.8542 1.1966 1.5804 1.1966 1.5804 3.635 0 1.1063-0.42898 1.9417-0.4064 0.8128-1.1063 1.3998-0.67733 0.56444-1.4676 0.92569l4.7413 7.0217h-3.7931l-3.8382-6.1863h-1.8288v6.1863h-3.4092v-16.121zm-0.24836 2.7996h-1.0386v4.3575h1.1063q1.6933 0 2.4158-0.56444 0.74507-0.56444 0.74507-1.6708 0-1.1515-0.79022-1.6256-0.76764-0.49671-2.4384-0.49671zm17.295-0.18062q-1.9643 0-3.0028 1.4676t-1.0386 4.0188q0 2.5739 0.94827 3.9963 0.97084 1.3998 3.0932 1.3998 0.99342 0 1.9643-0.22578 0.99342-0.22578 2.1449-0.63218v2.8674q-1.0612 0.42898-2.0997 0.63218-1.0386 0.2032-2.3255 0.2032-2.4836 0-4.1092-1.016-1.603-1.0386-2.3707-2.89-0.76764-1.874-0.76764-4.3575 0-2.4384 0.88053-4.3124 0.88054-1.874 2.5513-2.9351 1.6933-1.0612 4.1317-1.0612 1.1966 0 2.3932 0.31609 1.2192 0.29351 2.3255 0.8128l-1.1063 2.7771q-0.90311-0.42898-1.8288-0.74507-0.90311-0.31609-1.7836-0.31609z" fill="#fff" fill-opacity=".9" stroke-width=".41464" aria-label="RC"/>
 <path d="m12 0v18h-12v2.9998h12v27h3.0003v-27h33v-2.9998h-33v-18z" fill="#fff" fill-opacity=".38" stroke-width=".31"/>
</svg>
